<svg xmlns="http://www.w3.org/2000/svg" width="50" height="50" viewBox="0 0 50 50">
  <g id="Group_53" data-name="Group 53" transform="translate(22578 1728)">
    <g id="Group_52" data-name="Group 52" transform="translate(-1260.707 -21)">
      <g id="Group_45" data-name="Group 45" transform="translate(-21317.293 -1707)">
        <ellipse id="Ellipse_1" data-name="Ellipse 1" cx="25" cy="25" rx="25" ry="25" transform="translate(0 0)" fill="#6e6767"/>
        <g id="Group_44" data-name="Group 44" transform="translate(11.999 11)">
          <path id="Path_1" data-name="Path 1" d="M483.9,279.151a16.01,16.01,0,0,1-7.143,1.406,11.859,11.859,0,0,1-12.179-12.3c0-7.963,5.778-14.873,14.6-14.873,6.87,0,11.789,4.724,11.789,11.282,0,5.7-3.2,9.291-7.417,9.291a3.061,3.061,0,0,1-3.356-3.006h-.078a5.731,5.731,0,0,1-5.036,3.006c-2.537,0-4.372-1.874-4.372-5.075a8.914,8.914,0,0,1,9.134-9.1,10.959,10.959,0,0,1,4.646.976l-1.171,7.222c-.39,2.3-.117,3.357.976,3.4,1.679.039,3.787-2.108,3.787-6.6,0-5.075-3.279-9.018-9.33-9.018-5.973,0-11.2,4.684-11.2,12.141,0,6.519,4.177,10.228,9.994,10.228a12.7,12.7,0,0,0,5.66-1.249Zm-3.474-16.121a4.788,4.788,0,0,0-1.21-.156c-2.577,0-4.606,2.537-4.606,5.543,0,1.483.663,2.42,1.952,2.42,1.445,0,2.967-1.834,3.318-4.1Z" transform="translate(-464.578 -253.387)" fill="#fff"/>
        </g>
      </g>
    </g>
  </g>
</svg>
