<svg xmlns="http://www.w3.org/2000/svg" width="50" height="50" viewBox="0 0 50 50">
  <g id="Group_51" data-name="Group 51" transform="translate(21421.729 1706.953)">
    <g id="Group_47" data-name="Group 47" transform="translate(-21421.729 -1706.953)">
      <path id="Path_2" data-name="Path 2" d="M299.395,576.289a25,25,0,1,1-25-25A25,25,0,0,1,299.395,576.289Z" transform="translate(-249.394 -551.289)" fill="#6e6767"/>
      <g id="Group_46" data-name="Group 46" transform="translate(11.677 11.146)">
        <rect id="Rectangle_2" data-name="Rectangle 2" width="26.12" height="26.12" rx="9.75" fill="none" stroke="#fff" stroke-miterlimit="10" stroke-width="2"/>
        <path id="Path_3" data-name="Path 3" d="M299.324,594.563a5.405,5.405,0,1,1-5.405,5.405,5.416,5.416,0,0,1,5.405-5.405Z" transform="translate(-286.265 -586.908)" fill="none" stroke="#fff" stroke-miterlimit="10" stroke-width="2"/>
        <path id="Path_4" data-name="Path 4" d="M320.76,584.584a1.942,1.942,0,1,1-1.943,1.942,1.946,1.946,0,0,1,1.943-1.942Z" transform="translate(-299.909 -581.439)" fill="#fff" stroke="#e9e9e9" stroke-width="1"/>
      </g>
    </g>
  </g>
</svg>
