<svg xmlns="http://www.w3.org/2000/svg" width="50" height="50" viewBox="0 0 50 50">
  <g id="Group_55" data-name="Group 55" transform="translate(22584 1625)">
    <g id="Group_50" data-name="Group 50" transform="translate(-1058 82)">
      <g id="Group_49" data-name="Group 49" transform="translate(-21526 -1707)">
        <path id="Path_5" data-name="Path 5" d="M122.858,411.685a25,25,0,1,1-25-25A25,25,0,0,1,122.858,411.685Z" transform="translate(-72.857 -386.685)" fill="#6e6767"/>
        <g id="Group_54" data-name="Group 54" transform="translate(-7.379 -7.385)">
          <g id="Group_48" data-name="Group 48" transform="translate(19.378 19.385)">
            <path id="Path_6" data-name="Path 6" d="M107.477,409.9a12.374,12.374,0,0,0-10.6,18.761L94.648,435.3l6.85-2.192a12.374,12.374,0,1,0,5.98-23.206Z" transform="translate(-94.648 -409.899)" fill="#fff" fill-rule="evenodd"/>
          </g>
          <path id="Path_7" data-name="Path 7" d="M125.093,433.808a.88.88,0,0,0-.093-1.314l-2.325-1.786a.88.88,0,0,0-1.1.018l-.894.736a1.2,1.2,0,0,1-1.358.107,19.971,19.971,0,0,1-4.175-4.174,1.2,1.2,0,0,1,.107-1.357l.735-.894a.88.88,0,0,0,.018-1.1l-1.785-2.324a.881.881,0,0,0-1.315-.093l-1.851,1.812a1.651,1.651,0,0,0-.276,2l1.7,2.945a20.432,20.432,0,0,0,5.848,5.848l2.945,1.7a1.651,1.651,0,0,0,2-.276Z" transform="translate(-86.068 -396.807)" fill="#6e6767" fill-rule="evenodd"/>
        </g>
      </g>
    </g>
  </g>
</svg>
